<?xml version="1.0" encoding="utf-8"?>
<!-- Generator: Adobe Illustrator 23.1.0, SVG Export Plug-In . SVG Version: 6.00 Build 0)  -->
<svg version="1.1" id="Layer_1" xmlns="http://www.w3.org/2000/svg" xmlns:xlink="http://www.w3.org/1999/xlink" x="0px" y="0px"
	 viewBox="0 0 99.2 66.8" style="enable-background:new 0 0 99.2 66.8;" xml:space="preserve">
<style type="text/css">
	.st0{fill:#FFE15A;}
	.st1{fill:#C71C1C;}
	.st2{fill:#FF4B55;}
	.st3{fill:#BCBCBC;}
	.st4{fill:#FFFFFF;}
</style>
<g>
	<g>
		<path class="st0" d="M34.4,0c-0.1,0-0.2,0-0.2,0.1L34,1.9l-2.2-0.3c-0.3,0-0.3,0.3,0,0.5l2.2,1.4l-0.1,1.8c0,0.2,0.2,0.4,0.4,0.4
			c0.1,0,0.1,0,0.2,0l1.5-0.9L38,6c0.1,0,0.1,0.1,0.2,0.1c0.2,0,0.3-0.1,0.2-0.3l-1.3-1.9l1.4-0.9c0.2-0.1,0-0.4-0.3-0.5L36,2.1
			l-1.3-1.9C34.6,0.1,34.5,0,34.4,0"/>
		<path class="st0" d="M47,39.4c-0.1,0-0.2,0-0.2,0.1l-0.1,1.7L44.4,41c-0.3,0-0.3,0.3,0,0.4l2.2,1.4l-0.1,1.8
			c0,0.2,0.2,0.4,0.4,0.4c0.1,0,0.1,0,0.2,0l1.5-0.9l2.2,1.4c0.1,0,0.1,0.1,0.2,0.1c0.2,0,0.3-0.1,0.2-0.3l-1.3-1.9l1.4-0.9
			c0.2-0.1,0-0.4-0.3-0.5l-2.3-0.3l-1.3-1.9C47.2,39.5,47.1,39.4,47,39.4"/>
		<path class="st0" d="M63.5,22.7c-0.1,0-0.2,0-0.2,0.1l-0.1,1.7l-2.2-0.3c-0.3,0-0.3,0.3,0,0.4l2.2,1.4L63,27.9
			c0,0.2,0.2,0.4,0.4,0.4c0.1,0,0.1,0,0.2,0l1.5-0.9l2.2,1.4c0.1,0,0.1,0.1,0.2,0.1c0.2,0,0.3-0.1,0.2-0.3l-1.3-1.9l1.4-0.9
			c0.2-0.1,0-0.4-0.3-0.5l-2.3-0.3l-1.3-1.9C63.8,22.8,63.6,22.7,63.5,22.7"/>
		<path class="st0" d="M18,6.8c-0.1,0-0.2,0-0.2,0.1l-0.1,1.7l-2.2-0.3c-0.3,0-0.3,0.3,0,0.5l2.2,1.4L17.5,12c0,0.2,0.2,0.4,0.4,0.4
			c0.1,0,0.1,0,0.2,0l1.5-0.9l2.2,1.4c0.1,0,0.1,0.1,0.2,0.1c0.2,0,0.3-0.1,0.2-0.3l-1.3-1.9l1.4-0.9c0.2-0.1,0-0.4-0.3-0.5L19.6,9
			l-1.3-1.9C18.2,6.9,18.1,6.9,18,6.8"/>
		<path class="st0" d="M63.8,31.7c-0.1,0-0.2,0-0.2,0.1l-0.1,1.7l-2.2-0.3c-0.3,0-0.3,0.3,0,0.4l2.2,1.4l-0.1,1.8
			c0,0.2,0.2,0.4,0.4,0.4c0.1,0,0.1,0,0.2,0l1.5-0.9l2.2,1.4c0.1,0,0.1,0.1,0.2,0.1c0.2,0,0.3-0.1,0.2-0.3l-1.3-1.9l1.4-0.9
			c0.2-0.1,0-0.4-0.3-0.5l-2.3-0.3L64.2,32C64.1,31.8,63.9,31.8,63.8,31.7"/>
		<path class="st0" d="M46.9,3.7c-0.1,0-0.2,0-0.2,0.1l-0.1,1.7l-2.2-0.3c-0.3,0-0.3,0.3,0,0.5l2.2,1.4l-0.1,1.8
			c0,0.2,0.2,0.4,0.4,0.4c0.1,0,0.1,0,0.2,0l1.5-0.9l2.2,1.4c0.1,0,0.1,0.1,0.2,0.1c0.2,0,0.3-0.1,0.2-0.3l-1.3-1.9l1.4-0.9
			c0.2-0.1,0-0.5-0.3-0.5l-2.3-0.3L47.2,4C47.1,3.8,47,3.8,46.9,3.7"/>
		<path class="st0" d="M57.5,12.1c-0.1,0-0.2,0-0.2,0.1l-0.1,1.7l-2.2-0.3c-0.3,0-0.3,0.3,0,0.5l2.2,1.4L57,17.2
			c0,0.2,0.2,0.4,0.4,0.4c0.1,0,0.1,0,0.2,0l1.5-0.9l2.2,1.4c0.1,0,0.1,0.1,0.2,0.1c0.2,0,0.3-0.1,0.2-0.3l-1.3-1.9l1.4-0.9
			c0.2-0.1,0-0.4-0.3-0.5l-2.3-0.3l-1.3-1.9C57.8,12.1,57.6,12.1,57.5,12.1"/>
		<path class="st0" d="M24,0.7c-0.1,0-0.2,0-0.2,0.1l-0.1,1.7l-2.2-0.3c-0.3,0-0.3,0.3,0,0.5l2.2,1.4l-0.1,1.8
			c0,0.2,0.2,0.4,0.4,0.4c0.1,0,0.1,0,0.2,0l1.5-0.9l2.2,1.4c0.1,0,0.1,0.1,0.2,0.1c0.2,0,0.3-0.1,0.2-0.3l-1.3-1.9l1.4-0.9
			c0.2-0.1,0-0.5-0.3-0.5l-2.2-0.3L24.4,1C24.3,0.8,24.1,0.8,24,0.7"/>
		<path class="st0" d="M57.8,37.9c-0.1,0-0.2,0-0.2,0.1l-0.1,1.7l-2.2-0.3c-0.3,0-0.3,0.3,0,0.4l2.2,1.4L57.3,43
			c0,0.2,0.2,0.4,0.4,0.4c0.1,0,0.1,0,0.2,0l1.5-0.9l2.2,1.4c0.1,0,0.1,0.1,0.2,0.1c0.2,0,0.3-0.1,0.2-0.3l-1.3-1.9l1.4-0.9
			c0.2-0.1,0-0.4-0.3-0.5L59.4,40l-1.3-1.9C58,37.9,57.9,37.9,57.8,37.9"/>
		<rect x="35.2" y="9.9" class="st1" width="7.5" height="27.4"/>
		<path class="st0" d="M35,34.8c-0.1,0-0.2,0-0.2,0.1l-0.1,1.7l-2.2-0.3c-0.3,0-0.3,0.3,0,0.4l2.2,1.4L34.4,40
			c0,0.2,0.2,0.4,0.4,0.4c0.1,0,0.1,0,0.2,0l1.5-0.9l2.2,1.4c0.1,0,0.1,0.1,0.2,0.1c0.2,0,0.3-0.1,0.2-0.3l-1.3-1.9l1.4-0.9
			c0.2-0.1,0-0.4-0.3-0.5L36.6,37l-1.3-1.9C35.2,34.9,35.1,34.9,35,34.8"/>
		<rect x="22.4" y="18" class="st1" width="7.5" height="19.3"/>
		<path class="st0" d="M24.3,26.5c-0.1,0-0.2,0-0.2,0.1l-0.1,1.7l-2.2-0.3c-0.3,0-0.3,0.3,0,0.4l2.2,1.4l-0.1,1.8
			c0,0.2,0.2,0.4,0.4,0.4c0.1,0,0.1,0,0.2,0l1.5-0.9l2.2,1.4c0.1,0,0.1,0.1,0.2,0.1c0.2,0,0.3-0.1,0.2-0.3l-1.3-1.9l1.4-0.9
			c0.2-0.1,0-0.4-0.3-0.5l-2.2-0.3l-1.3-1.9C24.6,26.6,24.4,26.6,24.3,26.5"/>
		<path class="st0" d="M17.8,16.7c-0.1,0-0.2,0-0.2,0.1l-0.1,1.7l-2.2-0.3c-0.3,0-0.3,0.3,0,0.4l2.2,1.4l-0.1,1.8
			c0,0.2,0.2,0.4,0.4,0.4c0.1,0,0.1,0,0.2,0l1.5-0.9l2.2,1.4c0.1,0,0.1,0.1,0.2,0.1c0.2,0,0.3-0.1,0.2-0.3l-1.3-1.9l1.4-0.9
			c0.2-0.1,0-0.4-0.3-0.5l-2.2-0.3l-1.3-1.9C18.1,16.8,18,16.7,17.8,16.7"/>
		<path class="st2" d="M65.1,2.3c0,0,2.2,4,8.1,5C78.8,8.2,84.1,8.9,91,15l-6.9,17.2c0,0-6-6.5-13.3-7.6c-7.4-1.1-10.9-3.3-12.1-6.1
			"/>
		<rect x="36.7" y="19.6" transform="matrix(0.374 -0.9274 0.9274 0.374 16.9809 65.7097)" class="st3" width="40.9" height="1.4"/>
		<path class="st4" d="M69.9,15.9l2.8,1.1l-1.1,2.8c-0.1,0.2,0,0.5,0.3,0.6l2.4,0.9c0.2,0.1,0.5,0,0.6-0.3l1.1-2.8l2.8,1.1
			c0.2,0.1,0.5,0,0.6-0.3l0.9-2.4c0.1-0.2,0-0.5-0.3-0.6l-2.8-1.1l1.1-2.8c0.1-0.2,0-0.5-0.3-0.6l-2.4-0.9c-0.2-0.1-0.5,0-0.6,0.3
			l-1.1,2.8l-2.8-1.1c-0.2-0.1-0.5,0-0.6,0.3l-0.9,2.4C69.5,15.6,69.6,15.8,69.9,15.9z"/>
		<rect x="48" y="2" class="st1" width="7.5" height="35.3"/>
	</g>
	<g>
		<path class="st4" d="M7.7,61.2H2.9v3.1h5.3v2.4H0V53.8h7.9v2.4h-5v2.7h4.7V61.2z"/>
		<path class="st4" d="M13.1,53.8v7.4c0,2.2,0.8,3.3,2.3,3.3c1.5,0,2.4-1.1,2.4-3.3v-7.4h2.9V61c0,4-2,5.9-5.4,5.9
			c-3.2,0-5.2-1.8-5.2-5.9v-7.2H13.1z"/>
		<path class="st4" d="M27.1,53.8H35v2.4H30v2.9h4.6v2.4H30v5.2h-2.9V53.8z"/>
		<path class="st4" d="M43.9,66.6l-1.2-2.3c-0.5-0.9-0.8-1.6-1.1-2.3h0c-0.3,0.7-0.6,1.4-1,2.3l-1.1,2.3h-3.3l3.7-6.5l-3.6-6.4h3.3
			l1.1,2.3c0.4,0.8,0.7,1.4,1,2.1h0c0.3-0.8,0.6-1.4,0.9-2.1l1.1-2.3h3.3L43.5,60l3.8,6.6H43.9z"/>
		<path class="st4" d="M55.6,53.8v12.9h-2.9V53.8H55.6z"/>
		<path class="st4" d="M58.1,60.3c0-1.2,0-2.2-0.1-3h2.5l0.1,1.3h0.1c0.4-0.6,1.3-1.5,2.9-1.5c1.9,0,3.3,1.3,3.3,4v5.5h-2.9v-5.2
			c0-1.2-0.4-2-1.5-2c-0.8,0-1.3,0.6-1.5,1.1C61.1,60.7,61,61,61,61.2v5.4h-2.9V60.3z"/>
		<path class="st4" d="M78.4,53.1v10.8c0,1.1,0,2.2,0.1,2.8h-2.6l-0.1-1.4h0c-0.6,1-1.7,1.6-2.9,1.6c-2.2,0-4-1.9-4-4.8
			c0-3.2,1.9-5,4.2-5c1.1,0,2,0.4,2.5,1.1h0v-5.1H78.4z M75.5,61.2c0-0.2,0-0.4,0-0.5c-0.2-0.8-0.8-1.4-1.7-1.4c-1.3,0-2,1.2-2,2.7
			c0,1.6,0.8,2.6,2,2.6c0.8,0,1.5-0.6,1.7-1.4c0.1-0.2,0.1-0.4,0.1-0.7V61.2z"/>
		<path class="st4" d="M82.9,62.9c0.1,1.2,1.3,1.8,2.6,1.8c1,0,1.8-0.1,2.6-0.4l0.4,2c-1,0.4-2.1,0.6-3.4,0.6c-3.2,0-5-1.9-5-4.8
			c0-2.4,1.5-5,4.7-5c3,0,4.2,2.3,4.2,4.7c0,0.5-0.1,0.9-0.1,1.1H82.9z M86.3,60.9c0-0.7-0.3-1.9-1.6-1.9c-1.2,0-1.7,1.1-1.8,1.9
			H86.3z"/>
		<path class="st4" d="M92.8,57.3l0.9,1.5c0.3,0.5,0.5,1,0.8,1.4h0c0.2-0.5,0.5-1,0.7-1.4l0.8-1.5h3.2l-3.1,4.5l3.1,4.9h-3.3
			L95,64.9c-0.3-0.5-0.5-0.9-0.7-1.4h-0.1c-0.2,0.5-0.5,1-0.7,1.4l-0.9,1.7h-3.2l3.2-4.8l-3.1-4.6H92.8z"/>
	</g>
</g>
</svg>
